<svg xmlns="http://www.w3.org/2000/svg" viewBox="0 0 1200 630" width="1200" height="630">
  <defs>
    <linearGradient id="bg" x1="0" y1="0" x2="1" y2="1">
      <stop offset="0%" stop-color="#0B0C10"/>
      <stop offset="100%" stop-color="#15161A"/>
    </linearGradient>
    <linearGradient id="accent" x1="0" y1="0" x2="1" y2="0">
      <stop offset="0%" stop-color="#F59E0B"/>
      <stop offset="100%" stop-color="#D97706"/>
    </linearGradient>
  </defs>
  <rect width="1200" height="630" fill="url(#bg)"/>
  <g opacity="0.08">
    <circle cx="100" cy="100" r="2" fill="#F59E0B"/>
    <circle cx="300" cy="200" r="2" fill="#F59E0B"/>
    <circle cx="500" cy="120" r="2" fill="#F59E0B"/>
    <circle cx="800" cy="180" r="2" fill="#F59E0B"/>
    <circle cx="1050" cy="90" r="2" fill="#F59E0B"/>
    <circle cx="200" cy="480" r="2" fill="#F59E0B"/>
    <circle cx="700" cy="540" r="2" fill="#F59E0B"/>
    <circle cx="1100" cy="500" r="2" fill="#F59E0B"/>
    <line x1="100" y1="100" x2="300" y2="200" stroke="#F59E0B" stroke-width="1"/>
    <line x1="300" y1="200" x2="500" y2="120" stroke="#F59E0B" stroke-width="1"/>
    <line x1="500" y1="120" x2="800" y2="180" stroke="#F59E0B" stroke-width="1"/>
    <line x1="800" y1="180" x2="1050" y2="90" stroke="#F59E0B" stroke-width="1"/>
  </g>
  <text x="80" y="200" font-family="'Space Grotesk', system-ui, sans-serif" font-weight="300" font-size="32" fill="#A1A1AA" letter-spacing="8">AEVUM SYSTEM</text>
  <text x="80" y="320" font-family="'Space Grotesk', system-ui, sans-serif" font-weight="600" font-size="76" fill="#F9FAFB" letter-spacing="-2">KI-Betriebssysteme</text>
  <text x="80" y="410" font-family="'Space Grotesk', system-ui, sans-serif" font-weight="300" font-size="64" fill="url(#accent)" letter-spacing="-1">für den Mittelstand.</text>
  <line x1="80" y1="470" x2="200" y2="470" stroke="#F59E0B" stroke-width="3"/>
  <text x="80" y="530" font-family="'Inter', system-ui, sans-serif" font-weight="400" font-size="24" fill="#A1A1AA">Workflow-Audit · Automation · messbare Pipeline</text>
  <text x="80" y="570" font-family="'JetBrains Mono', monospace" font-weight="400" font-size="18" fill="#F59E0B" letter-spacing="2">aevum-system.de</text>
</svg>
